<svg width="391" height="414" viewBox="0 0 391 414" fill="none" xmlns="http://www.w3.org/2000/svg">
<path d="M390.5 201.07C390.597 208.612 390.601 215.872 390.5 222.861C388.605 354.288 349.699 389.68 196.5 390.5C47.0091 391.3 0.00207867 359.573 0 202.091C-9.19948e-08 202.084 -2.3003e-08 202.077 6.89478e-08 202.07C0.00223064 33.0703 41.0005 0.0699002 196.5 0.069904C370.5 -2.43013 388.714 62.0814 390.5 201.07Z" fill="white"/>
<path d="M196.5 413.5C357.846 412.637 392.419 373.427 390.5 224.07V222.861C388.605 354.288 349.699 389.68 196.5 390.5C47.0091 391.3 0.00207867 359.573 0 202.091L6.89478e-08 225.07C-0.00207872 382.57 47.0025 414.3 196.5 413.5Z" fill="#45DDE5"/>
<path d="M3.75293 277.729C9.88295 313.74 21.7389 339.183 41.1855 356.764C71.6185 384.276 120.248 392.155 193.024 392.013L196.508 392C273.092 391.59 321.651 382.569 351.225 356.789C370.398 340.075 381.428 316.466 387.086 284.081C383.224 325.099 373.304 353.763 353.664 373.409C325.571 401.511 277.19 411.568 196.492 412C121.71 412.4 73.1538 404.623 43.1934 377.535C20.6665 357.168 8.42599 325.662 3.75293 277.729ZM196.521 1.56934C283.44 0.320492 330.846 15.8408 356.908 48.4482C369.962 64.7807 377.776 85.5322 382.428 110.946C387.081 136.369 388.554 166.355 389 201.089C389.097 208.619 389.101 215.866 389 222.84C388.053 288.517 377.837 329.61 349.253 354.527C321.047 379.115 274.585 388.302 200.062 388.975L196.492 389C121.713 389.4 73.1581 381.623 43.1973 354.538C13.7485 327.915 1.87364 282.26 1.50879 205.757L1.5 202.091V202.07C1.50112 117.542 11.7946 67.6535 40.9932 38.7617C70.1929 9.86906 118.702 1.57031 196.5 1.57031H196.511L196.521 1.56934Z" stroke="#45DDE5" stroke-width="3"/>
<path d="M312.693 172.665C312.693 241.665 206.193 310.665 192.693 310.665C179.193 310.665 65.6934 237.665 71.1934 172.665C71.1934 115.504 142.693 78.1661 191.693 129.665C239.693 77.6661 312.693 115.504 312.693 172.665Z" fill="#45DDE5"/>
<path d="M295.653 85H299.347C311.59 85 321.514 94.9244 321.514 107.167V127.486H341.833C354.076 127.486 364 137.41 364 149.653V153.347C364 165.59 354.076 175.514 341.833 175.514H321.514V195.833C321.514 208.076 311.59 218 299.347 218H295.653C283.41 218 273.486 208.076 273.486 195.833V175.514H253.167C240.924 175.514 231 165.59 231 153.347V149.653C231 137.41 240.924 127.486 253.167 127.486H273.486V107.167C273.486 94.9244 283.41 85 295.653 85Z" fill="#95FFFD"/>
<path d="M257 212.766C257 208.816 253.574 205.614 249.348 205.614H189.31C185.084 205.614 181.658 208.816 181.658 212.766C181.658 216.716 185.084 219.918 189.31 219.918H249.348C253.574 219.918 257 216.716 257 212.766Z" fill="white"/>
<path d="M191.21 206.234C187.316 204.754 182.875 206.506 181.292 210.146L159.998 259.111C158.415 262.751 160.289 266.901 164.183 268.381C168.078 269.861 172.518 268.109 174.101 264.469L195.396 215.504C196.979 211.864 195.105 207.713 191.21 206.234Z" fill="white"/>
<path d="M123.048 156.489C119.132 157.919 117.197 162.045 118.726 165.705L160 264.472C161.529 268.132 165.943 269.94 169.859 268.511C173.775 267.081 175.71 262.955 174.18 259.295L132.907 160.528C131.378 156.868 126.963 155.06 123.048 156.489Z" fill="white"/>
<path d="M128.839 156.89C125.024 155.239 120.5 156.792 118.733 160.357L94.3597 209.555C92.5932 213.121 94.2538 217.35 98.0686 219.001C101.883 220.652 106.408 219.1 108.174 215.534L132.548 166.336C134.315 162.77 132.654 158.541 128.839 156.89Z" fill="white"/>
<path d="M108.671 212.766C108.671 208.816 105.245 205.614 101.019 205.614H78.6519C74.4259 205.614 71 208.816 71 212.766C71 216.716 74.4259 219.918 78.6519 219.918H101.019C105.245 219.918 108.671 216.716 108.671 212.766Z" fill="white"/>
</svg>
